<?xml version="1.0" encoding="iso-8859-1"?>
<!-- Generator: Adobe Illustrator 19.0.0, SVG Export Plug-In . SVG Version: 6.00 Build 0)  -->
<svg xmlns="http://www.w3.org/2000/svg" xmlns:xlink="http://www.w3.org/1999/xlink" version="1.1" id="Layer_1" x="0px" y="0px" viewBox="0 0 497 497" style="enable-background:new 0 0 497 497;" xml:space="preserve" width="512" height="512">
<g>
	<path style="fill:#0D84FD;" d="M472.89,331.373l23.551-32.909c1.405-1.964,0.002-4.694-2.413-4.694h-115.74v75.206h115.74   c2.415,0,3.818-2.73,2.413-4.694L472.89,331.373z"/>
	<path style="fill:#0D84FD;" d="M24.11,331.373L0.559,298.464c-1.405-1.964-0.002-4.694,2.413-4.694h115.74v75.206H2.972   c-2.415,0-3.818-2.73-2.413-4.694L24.11,331.373z"/>
	<polygon style="fill:#4695FD;" points="41.969,308.846 118.712,368.976 118.712,308.846 90.376,288.433  "/>
	<polygon style="fill:#4695FD;" points="455.031,308.846 378.288,368.976 378.288,308.846 406.624,288.433  "/>
	<path style="fill:#44596A;" d="M450.573,122.417c-63.131-66.648-170.95-95.387-196.519-101.449c-3.657-0.867-7.452-0.867-11.109,0   c-25.569,6.062-133.388,34.8-196.519,101.449c-4.228,4.464-6.54,10.404-6.516,16.552c0.169,43.408,12.318,224.374,196.343,334.338   c7.532,4.501,16.961,4.501,24.493,0c184.025-109.964,196.174-290.93,196.343-334.338   C457.113,132.82,454.802,126.88,450.573,122.417z"/>
	<path style="fill:#2D3C4F;" d="M72.166,288.433c7.048,16.475,15.612,33.418,26.035,50.413h300.598   c10.422-16.995,18.987-33.938,26.035-50.413H72.166z"/>
	<path style="fill:#FDE475;" d="M248.5,432.56c-65.757-41.548-113.242-97.62-141.236-166.808   c-20.991-51.882-25.356-97.493-26.093-120.014c53.371-52.254,141.535-77.33,167.328-83.79   c25.791,6.46,113.959,31.537,167.328,83.79c-0.736,22.521-5.1,68.13-26.092,120.014C361.743,334.94,314.257,391.012,248.5,432.56z"/>
	<g>
		<g>
			<path style="fill:#3A3C4C;" d="M170.107,178.286c-4.142,0-7.5-3.358-7.5-7.5v-14.188c0-4.142,3.358-7.5,7.5-7.5     s7.5,3.358,7.5,7.5v14.188C177.607,174.928,174.249,178.286,170.107,178.286z"/>
		</g>
		<g>
			<path style="fill:#3A3C4C;" d="M326.893,178.286c-4.142,0-7.5-3.358-7.5-7.5v-14.188c0-4.142,3.358-7.5,7.5-7.5     s7.5,3.358,7.5,7.5v14.188C334.393,174.928,331.035,178.286,326.893,178.286z"/>
		</g>
		<g>
			<path style="fill:#3A3C4C;" d="M248.5,185.859c-9.706,0-18.816-4.055-24.996-11.125c-2.726-3.119-2.408-7.857,0.711-10.583     c3.119-2.726,7.857-2.408,10.583,0.711c3.331,3.811,8.325,5.996,13.702,5.996c5.376,0,10.371-2.186,13.701-5.996     c2.726-3.119,7.464-3.437,10.583-0.711c3.119,2.726,3.437,7.464,0.711,10.583C267.316,181.805,258.205,185.859,248.5,185.859z"/>
		</g>
	</g>
	<path style="fill:#FDB058;" d="M107.264,265.752c10.635,26.285,24.09,50.672,40.285,73.094h201.902   c16.195-22.422,29.65-46.809,40.285-73.094H107.264z"/>
	<path style="fill:#83B5FD;" d="M431.001,233.64H65.999c-13.271,0-24.03,10.758-24.03,24.03v51.176h413.062V257.67   C455.031,244.398,444.272,233.64,431.001,233.64z"/>
</g>















</svg>
